<svg width="62" height="50" viewBox="0 0 62 50" fill="none" xmlns="http://www.w3.org/2000/svg">
<path d="M10 2H18.0771C19.7339 2.00013 21.0771 3.34322 21.0771 5V43C21.0771 45.7613 18.8385 47.9999 16.0771 48H10C5.58172 48 2 44.4183 2 40V10C2 5.58172 5.58172 2 10 2Z" stroke="#F5F5F5" stroke-width="4"/>
<path d="M24.4615 2H37.5387C39.1954 2.00013 40.5387 3.34322 40.5387 5V43C40.5387 45.7613 38.3 47.9999 35.5387 48H26.4615C23.7001 48 21.4615 45.7614 21.4615 43V5C21.4615 3.34315 22.8047 2 24.4615 2Z" stroke="#F5F5F5" stroke-width="4"/>
<path d="M43.9231 2H52.0002C56.4184 2.00013 60.0002 5.5818 60.0002 10V40C60.0002 44.4182 56.4184 47.9999 52.0002 48H45.9231C43.1617 48 40.9231 45.7614 40.9231 43V5C40.9231 3.34315 42.2662 2 43.9231 2Z" stroke="#F5F5F5" stroke-width="4"/>
<path d="M15 0H27V30C27 31.6569 25.6569 33 24 33H18C16.3431 33 15 31.6569 15 30V0Z" fill="#F5F5F5"/>
<path d="M34 0H46V30C46 31.6569 44.6569 33 43 33H37C35.3431 33 34 31.6569 34 30V0Z" fill="#F5F5F5"/>
</svg>
