<svg width="49" height="42" viewBox="0 0 49 42" fill="none" xmlns="http://www.w3.org/2000/svg">
<path d="M10 2H14C15.6569 2 17 3.34315 17 5V35C17 37.7614 14.7614 40 12 40H10C5.58172 40 2 36.4183 2 32V10C2 5.58172 5.58172 2 10 2Z" stroke="#F5F5F5" stroke-width="4"/>
<path d="M20 2H29C30.6569 2 32 3.34315 32 5V35C32 37.7614 29.7614 40 27 40H22C19.2386 40 17 37.7614 17 35V5C17 3.34315 18.3431 2 20 2Z" stroke="#F5F5F5" stroke-width="4"/>
<path d="M35 2H39C43.4183 2 47 5.58172 47 10V32C47 36.4183 43.4183 40 39 40H37C34.2386 40 32 37.7614 32 35V5C32 3.34315 33.3431 2 35 2Z" stroke="#F5F5F5" stroke-width="4"/>
<path d="M12 0H22V25C22 26.6569 20.6569 28 19 28H15C13.3431 28 12 26.6569 12 25V0Z" fill="#F5F5F5"/>
<path d="M27 0H37V25C37 26.6569 35.6569 28 34 28H30C28.3431 28 27 26.6569 27 25V0Z" fill="#F5F5F5"/>
</svg>
